#!OML:ASF E:\acrobat2\Project_11_07_03\Capture day 1\Session 1\Acrobat.ASF
:FULLY-SPECIFIED
:DEGREES
523
root 10.2718 24.8926 11.8766 -56.0453 -15.5564 -9.01597
lowerback -16.3716 2.17746 6.33383
upperback -11.8664 1.96264 -2.74162
thorax -3.29415 0.460969 -6.23251
lowerneck -0.658586 -8.42077 -5.1964
upperneck -30.8834 -10.496 4.84588
head -9.01986 -4.49991 3.21402
rclavicle -6.36111e-015 -4.72859e-014
rhumerus 34.5869 11.0467 -24.9097
rradius 43.72
rwrist 0.00107133
rhand -10.729 -31.2872
rfingers 7.12502
rthumb 15.2815 -60.7027
lclavicle -6.36111e-015 -4.72859e-014
lhumerus 7.5838 -22.4433 46.3007
lradius 84.9053
lwrist 17.8472
lhand -28.3157 -42.1043
lfingers 7.12502
lthumb -1.69081 -12.1312
rfemur 19.4285 -9.53592 17.7944
rtibia 62.106
rfoot 40.6468 -22.0052
rtoes 39.1078
lfemur 22.8347 4.95106 18.1733
ltibia 52.5107
lfoot 21.3243 17.3571
ltoes 25.4305
524
root 10.2618 25.0838 11.7291 -59.8692 -17.514 -10.7989
lowerback -13.7198 2.22214 8.57302
upperback -11.2906 1.99024 -2.63646
thorax -4.05064 0.337511 -7.44391
lowerneck -0.989821 -8.64951 -5.71384
upperneck -32.1501 -10.7907 4.9363
head -9.37393 -4.51794 3.37987
rclavicle 1.90833e-014 1.28216e-014
rhumerus 31.7479 12.0436 -22.2245
rradius 42.9547
rwrist 0.940904
rhand -11.2176 -31.7015
rfingers 7.12502
rthumb 14.8108 -61.1522
lclavicle 1.90833e-014 1.28216e-014
lhumerus 2.81823 -19.1822 47.8863
lradius 87.0608
lwrist 20.8954
lhand -30.0428 -42.5095
lfingers 7.12502
lthumb -3.35877 -12.5562
rfemur 19.0021 -10.3486 20.6893
rtibia 68.3632
rfoot 42.6125 -22.348
rtoes 38.9942
lfemur 23.0422 3.34168 21.7311
ltibia 57.287
lfoot 22.2394 14.4502
ltoes 23.6697
525
root 10.2521 25.2517 11.5695 -63.4503 -18.3744 -11.7592
lowerback -11.4981 2.1159 9.31828
upperback -10.7496 1.98485 -2.88531
thorax -4.64906 0.27167 -8.18602
lowerneck -1.3171 -8.84596 -6.0282
upperneck -33.0749 -11.0366 4.97315
head -9.62692 -4.5377 3.47762
rclavicle -2.70347e-014 -7.37491e-014
rhumerus 28.8574 13.6592 -19.6455
rradius 41.8402
rwrist 1.24702
rhand -11.8389 -32.6275
rfingers 7.12502
rthumb 14.2122 -62.1213
lclavicle -2.70347e-014 -7.37491e-014
lhumerus -1.23861 -15.9902 48.9928
lradius 88.13
lwrist 23.9332
lhand -31.4773 -42.421
lfingers 7.12502
lthumb -4.74403 -12.4941
rfemur 17.9345 -11.242 21.9611
rtibia 74.2894
rfoot 45.2038 -21.9612
rtoes 38.8983
lfemur 22.6663 2.03159 23.3784
ltibia 61.8739
lfoot 22.69 11.8628
ltoes 21.7816
526
root 10.2391 25.4008 11.3942 -66.5425 -18.8992 -12.4971
lowerback -9.8278 2.00712 9.49039
upperback -10.2867 1.9741 -3.25017
thorax -5.04938 0.238613 -8.71907
lowerneck -1.61751 -8.95163 -6.01589
upperneck -33.5508 -11.1907 4.78269
head -9.76227 -4.54763 3.42128
rclavicle 5.24792e-014 -1.86858e-014
rhumerus 25.9407 15.9253 -17.3241
rradius 40.3543
rwrist 1.31456
rhand -12.1622 -34.0623
rfingers 7.12502
rthumb 13.9007 -63.5777
lclavicle 5.24792e-014 -1.86858e-014
lhumerus -4.8761 -13.0616 49.7571
lradius 88.2327
lwrist 26.3948
lhand -32.4908 -42.0431
lfingers 7.12502
lthumb -5.72258 -12.1403
rfemur 16.0503 -12.1713 22.8939
rtibia 79.7888
rfoot 48.9663 -19.7529
rtoes 38.8595
lfemur 21.6944 1.20292 24.4928
ltibia 66.232
lfoot 22.7802 9.46638
ltoes 19.9164
527
root 10.2227 25.5384 11.2092 -69.3039 -18.6278 -12.8748
lowerback -8.7021 1.9067 8.59945
upperback -9.88169 1.95978 -3.84382
thorax -5.21536 0.270394 -8.87556
lowerneck -1.85986 -8.97223 -5.75449
upperneck -33.5292 -11.2712 4.3576
head -9.75855 -4.55348 3.22094
rclavicle 6.36111e-015 -5.1684e-015
rhumerus 23.0024 18.8061 -15.3828
rradius 38.5624
rwrist 1.51883
rhand -11.6939 -35.8828
rfingers 7.12502
rthumb 14.352 -65.3667
lclavicle 6.36111e-015 -5.1684e-015
lhumerus -8.22303 -10.6033 50.3125
lradius 87.4258
lwrist 27.8961
lhand -33.2662 -41.5635
lfingers 7.12502
lthumb -6.47118 -11.6824
rfemur 13.5742 -13.0904 22.8791
rtibia 84.6911
rfoot 49.635 -20.4095
rtoes 38.8467
lfemur 20.3628 0.864191 24.5373
ltibia 70.1587
lfoot 22.5164 7.31469
ltoes 18.2943
528
root 10.2039 25.6642 11.0157 -71.6928 -18.4844 -13.4406
lowerback -7.98577 1.83426 7.75322
upperback -9.49998 1.93133 -4.3898
thorax -5.19177 0.303117 -8.99397
lowerneck -2.04298 -8.90821 -5.30835
upperneck -32.9792 -11.2719 3.73677
head -9.59603 -4.55322 2.9016
rclavicle 9.38264e-014 -4.45278e-014
rhumerus 20.1145 22.2336 -13.8764
rradius 36.5799
rwrist 2.03942
rhand -10.0556 -37.8971
rfingers 7.12502
rthumb 15.9301 -67.262
lclavicle 9.38264e-014 -4.45278e-014
lhumerus -11.4263 -8.68443 50.753
lradius 85.8795
lwrist 28.4496
lhand -34.0998 -40.6415
lfingers 7.12502
lthumb -7.2759 -10.7866
rfemur 10.5876 -14.0343 23.2027
rtibia 88.9637
rfoot 50.1331 -20.567
rtoes 38.6682
lfemur 18.727 0.868626 24.8407
ltibia 73.5682
lfoot 22.1289 5.16856
ltoes 17.5698
529
root 10.186 25.7758 10.832 -74.2879 -18.348 -14.0928
lowerback -7.10051 1.76393 6.91251
upperback -8.98892 1.90457 -4.91911
thorax -5.12775 0.342937 -9.09625
lowerneck -2.17301 -8.91748 -5.10511
upperneck -31.9674 -11.3282 3.31736
head -9.2382 -4.59348 2.67795
rclavicle 1.59028e-014 -4.45278e-014
rhumerus 17.2527 26.0885 -12.8458
rradius 34.5797
rwrist 2.90163
rhand -7.16785 -39.8932
rfingers 7.12502
rthumb 18.7094 -69.0134
lclavicle 1.59028e-014 -4.45278e-014
lhumerus -14.3377 -7.31694 51.1632
lradius 83.5872
lwrist 28.3779
lhand -34.8894 -39.6479
lfingers 7.12502
lthumb -8.03799 -9.8208
rfemur 7.83737 -14.9591 23.4537
rtibia 92.4362
rfoot 50.3888 -20.5691
rtoes 38.5342
lfemur 17.3764 0.832663 25.1539
ltibia 76.2238
lfoot 21.6635 3.04642
ltoes 17.7604
530
root 10.1631 25.8756 10.6445 -76.7231 -18.2881 -15.0642
lowerback -6.35662 1.63272 6.0552
upperback -8.41035 1.78324 -5.39122
thorax -4.93944 0.346119 -9.12094
lowerneck -2.32117 -8.92265 -4.85996
upperneck -30.533 -11.3848 2.81174
head -8.74013 -4.65243 2.40678
rclavicle 1.27222e-014 -3.33958e-014
rhumerus 14.3477 30.1988 -12.496
rradius 32.7072
rwrist 4.06124
rhand -3.24262 -41.6883
rfingers 7.12502
rthumb 22.4811 -70.3998
lclavicle 1.27222e-014 -3.33958e-014
lhumerus -16.8493 -6.43988 51.5617
lradius 80.6353
lwrist 28.2367
lhand -35.7229 -38.3456
lfingers 7.12502
lthumb -8.84238 -8.55082
rfemur 4.91484 -15.9788 23.9421
rtibia 95.1399
rfoot 50.4102 -20.6187
rtoes 38.4509
lfemur 15.7789 0.792238 25.5605
ltibia 78.2558
lfoot 21.2604 0.90528
ltoes 18.7181
531
root 10.1336 25.9632 10.4583 -79.1515 -18.1818 -16.3948
lowerback -5.54178 1.42536 5.05241
upperback -7.72122 1.56199 -5.85066
thorax -4.69947 0.31133 -9.04435
lowerneck -2.43171 -8.9939 -4.71267
upperneck -28.7737 -11.5209 2.3271
head -8.13692 -4.75548 2.15854
rclavicle 1.11319e-013 -3.26007e-014
rhumerus 11.1763 34.3843 -13.0064
rradius 31.0664
rwrist 5.361
rhand 1.28123 -43.1999
rfingers 7.12502
rthumb 26.817 -71.3185
lclavicle 1.11319e-013 -3.26007e-014
lhumerus -18.8764 -5.94956 52.0877
lradius 77.1691
lwrist 28.5044
lhand -36.2296 -36.8269
lfingers 7.12502
lthumb -9.33136 -7.05343
rfemur 2.06699 -17.1106 24.4309
rtibia 97.0172
rfoot 50.2223 -20.7125
rtoes 38.3444
lfemur 14.022 0.528649 25.8118
ltibia 79.6004
lfoot 20.8128 -0.890648
ltoes 20.0404
532
root 10.0962 26.039 10.2741 -81.563 -17.9982 -18.1528
lowerback -4.60901 1.14923 3.84385
upperback -6.90796 1.24869 -6.31737
thorax -4.41747 0.241302 -8.85113
lowerneck -2.49121 -9.14699 -4.74605
upperneck -26.7559 -11.7525 1.90963
head -7.45353 -4.90439 1.96392
rclavicle 9.54166e-015 -6.52014e-014
rhumerus 7.46927 38.3925 -14.6066
rradius 29.6826
rwrist 6.66751
rhand 5.90353 -44.3274
rfingers 7.12502
rthumb 31.2314 -71.6845
lclavicle 9.54166e-015 -6.52014e-014
lhumerus -20.4497 -5.66055 52.797
lradius 73.4874
lwrist 29.3043
lhand -36.2333 -35.6015
lfingers 7.12502
lthumb -9.33497 -5.82822
rfemur -0.657912 -18.3754 24.8317
rtibia 98.0827
rfoot 49.8571 -20.7517
rtoes 38.177
lfemur 12.057 -0.0547359 25.7887
ltibia 80.2629
lfoot 19.3032 -0.281886
ltoes 21.2664
